<?xml version="1.0" encoding="UTF-8"?>
<svg id="a" data-name="Layer 1" xmlns="http://www.w3.org/2000/svg" viewBox="0 0 19.24 18.31">
  <path d="M11.78,3.83h6.46" fill="none" stroke="#000" stroke-linecap="round" stroke-linejoin="round" stroke-width="2"/>
  <path d="M14.61,6.66l-2.83-2.83,2.83-2.83" fill="none" stroke="#000" stroke-linecap="round" stroke-linejoin="round" stroke-width="2"/>
  <path d="M8.89,11.78h0c-1.28,1.28-3.34,1.28-4.62,0l-2.31-2.31c-1.28-1.28-1.28-3.34,0-4.62h0c1.28-1.28,3.34-1.28,4.62,0l.76.76" fill="none" stroke="#000" stroke-linecap="round" stroke-linejoin="round" stroke-width="2"/>
  <path d="M6.56,9.42h0c1.28-1.28,3.34-1.28,4.62,0l2.31,2.31c1.28,1.28,1.28,3.34,0,4.62h0c-1.28,1.28-3.34,1.28-4.62,0l-.98-.98" fill="none" stroke="#000" stroke-linecap="round" stroke-linejoin="round" stroke-width="2"/>
</svg>