<svg viewBox="0 0 24 24" fill="none" stroke="currentColor" stroke-width="2" stroke-linecap="round" stroke-linejoin="round" xmlns="http://www.w3.org/2000/svg">
  <g transform="translate(2 2.48) scale(1.0395)">
    <path d="M11.78,3.83h6.46" />
    <path d="M14.61,6.66l-2.83-2.83,2.83-2.83" />
    <path d="M8.89,11.78h0c-1.28,1.28-3.34,1.28-4.62,0l-2.31-2.31c-1.28-1.28-1.28-3.34,0-4.62h0c1.28-1.28,3.34-1.28,4.62,0l.76.76" />
    <path d="M6.56,9.42h0c1.28-1.28,3.34-1.28,4.62,0l2.31,2.31c1.28,1.28,1.28,3.34,0,4.62h0c-1.28,1.28-3.34,1.28-4.62,0l-.98-.98" />
  </g>
</svg>
