<?xml version="1.0" encoding="UTF-8"?>
<svg id="a" data-name="Layer 1" xmlns="http://www.w3.org/2000/svg" viewBox="0 0 17.14 17.98">
  <path d="M14.16,16.18h0c-.44-.22-1.02-.22-1.46,0l-1.25.64c-.44.22-1.02.22-1.46,0l-1.25-.64c-.44-.22-1.02-.22-1.46,0l-1.25.64c-.44.22-1.02.22-1.46,0,0,0-1.04-.42-1.35-1.43-.22-.7-2.24-1.18-2.24-1.47,0,0,2.8-3.62,3.02-6.53S6.77.89,10.13,1s5.51,3.49,5.74,6.66.27,7.8.27,7.8c0,.72-1.15,1.15-1.98.72Z" fill="none" stroke="#000" stroke-linecap="round" stroke-linejoin="round" stroke-width="2"/>
  <g>
    <line x1="11.98" y1="8.58" x2="11.98" y2="6.75" fill="none" stroke="#000" stroke-linecap="round" stroke-linejoin="round" stroke-width="2"/>
    <line x1="7.9" y1="8.58" x2="7.9" y2="6.75" fill="none" stroke="#000" stroke-linecap="round" stroke-linejoin="round" stroke-width="2"/>
  </g>
</svg>