<svg viewBox="0 0 24 24" fill="none" stroke="currentColor" stroke-width="1.6" stroke-linecap="round" stroke-linejoin="round" xmlns="http://www.w3.org/2000/svg">
  <path d="M3.12 2 C2 3.5 1.2 5 1.07 6.58 C1 8 1 9.5 1 10.96 C1 11.6 1.2 11.9 1.56 12.08 C2.5 12.8 3.2 13.6 3.82 14.48 C4.8 15.8 5.7 16.6 6.36 17.87 C6.8 18.7 7 19.4 7.2 19.98" />
  <path d="M4.95 2.07 C5.5 3 5.8 3.8 5.93 4.47 C6.1 5.3 6.3 5.9 6.36 6.58 C6.4 7.3 6 7.9 5.16 8.42 C5.4 8.6 5.6 8.7 5.79 8.84 C7 9.7 8.3 10.6 9.46 11.66 C10.4 12.5 11.3 12.2 12 12.79 C12 15 12 17.5 12 19.98 C12 20.5 12 21 12 21.53" />
  <g transform="translate(24,0) scale(-1,1)">
    <path d="M3.12 2 C2 3.5 1.2 5 1.07 6.58 C1 8 1 9.5 1 10.96 C1 11.6 1.2 11.9 1.56 12.08 C2.5 12.8 3.2 13.6 3.82 14.48 C4.8 15.8 5.7 16.6 6.36 17.87 C6.8 18.7 7 19.4 7.2 19.98" />
    <path d="M4.95 2.07 C5.5 3 5.8 3.8 5.93 4.47 C6.1 5.3 6.3 5.9 6.36 6.58 C6.4 7.3 6 7.9 5.16 8.42 C5.4 8.6 5.6 8.7 5.79 8.84 C7 9.7 8.3 10.6 9.46 11.66 C10.4 12.5 11.3 12.2 12 12.79 C12 15 12 17.5 12 19.98 C12 20.5 12 21 12 21.53" />
  </g>
</svg>
